<svg xmlns="http://www.w3.org/2000/svg" viewBox="0 0 960 400" width="960" height="400">
	<style>
		tspan { white-space:pre }
		.shp0 { fill: #ffffff;stroke: #ffffff;stroke-linecap:round;stroke-linejoin:round;stroke-width: 2.752 } 
		.shp1 { fill: #29abe2 } 
		.shp2 { fill: #ffffff } 
	</style>
	<g id="Layer_9">
	</g>
	<g id="Layer_16">
	</g>
	<g id="Layer_15">
	</g>
	<g id="Layer_14">
	</g>
	<g id="Layer_13">
	</g>
	<g id="Layer_12">
	</g>
	<g id="Layer_11">
	</g>
	<g id="Layer_10">
	</g>
	<g id="Layer_8">
	</g>
	<g id="Layer_7">
	</g>
	<g id="Layer_6">
	</g>
	<g id="Layer_5">
	</g>
	<g id="Layer_4">
	</g>
	<g id="Layer_3">
	</g>
	<g id="Layer_2">
		<g id="Layer">
			<path id="Layer" class="shp0" d="M327.96 284.64C327.96 280.11 331.51 276.56 336.05 276.56C336.05 276.56 340.98 278.14 344.92 279.71C352.22 283.06 361.09 285.63 370.56 285.63C386.14 285.63 396.99 278.92 396.99 264.33C396.99 250.33 386.54 245.58 369.37 239.86C347.87 232.76 328.15 225.46 328.15 199.42C328.15 175.36 346.1 165.3 371.55 165.3C382.6 165.3 392.26 167.27 403.9 172C406.86 173.19 409.23 176.14 409.23 179.5C409.23 184.03 405.48 187.79 400.94 187.79C399.56 187.79 398.37 187.59 397.38 187C389.89 183.45 380.61 180.29 371.35 180.29C358.13 180.29 347.87 185.62 347.87 198.45C347.87 213.43 363.26 219.75 376.87 224.29C395.61 230.61 416.71 236.13 416.71 263.15C416.71 290.57 395.21 300.63 369.56 300.63C353.18 300.63 342.15 296.29 332.68 292.15C329.73 290.77 327.96 288 327.96 284.64Z" />
			<path id="Layer" fill-rule="evenodd" class="shp0" d="M514.96 242.82L514.96 246.77C514.57 253.09 510.82 256.24 504.71 256.24L451.44 256.24C453.03 274.39 460.91 286.82 480.65 286.82C487.54 286.82 494.85 285.24 500.57 283.26C501.76 282.87 502.94 282.28 504.52 282.28C508.47 282.28 511.02 285.43 511.02 289.18C511.02 292.53 509.05 294.69 506.49 295.68C499.39 298.25 489.33 300.21 479.27 300.21C447.9 300.21 432.9 280.68 432.9 249.52C432.9 216.96 449.28 198.62 476.1 198.62C497.21 198.64 514.96 210.08 514.96 242.82ZM496.62 237.51C496.62 220.94 489.13 212.05 475.71 212.05C459.93 212.05 452.23 224.28 451.24 244.01L496.42 244.01C496.62 242.82 496.62 240.46 496.62 237.51Z" />
			<path id="Layer" fill-rule="evenodd" class="shp0" d="M528.38 331.21C527.78 331.41 527 331.6 526.01 331.6C521.67 331.6 518.12 328.06 518.12 323.72C518.12 320.16 520.49 317.21 523.45 316.22C532.53 312.87 537.47 308.14 537.47 297.88L537.47 207.93C537.47 203.19 541.41 199.05 546.34 199.05C551.27 199.05 555.21 203.19 555.21 207.93L555.21 297.88C555.21 314.63 543.96 326.27 528.38 331.21ZM545.93 187.21C539.41 187.21 534.29 184.04 534.29 176.55C534.29 169.05 539.43 166.09 545.93 166.09C552.44 166.09 557.38 169.05 557.38 176.55C557.38 184.04 552.44 187.19 545.93 187.21Z" />
			<path id="Layer" class="shp1" d="M544.87 189.93C531.27 189.93 520.28 178.93 520.28 165.33C520.28 151.73 531.27 140.74 544.87 140.74C558.47 140.74 569.46 151.73 569.46 165.33C569.46 178.93 558.47 189.93 544.87 189.93Z" />
			<path id="Layer" fill-rule="evenodd" class="shp0" d="M661.53 292.15C661.53 296.88 657.4 300.63 652.66 300.04C647.33 299.44 642 298.06 638.26 294.71C635.69 292.34 634.7 289.58 634.31 287.01C630.95 293.72 622.47 300.23 607.28 300.23C587.36 300.23 576.7 288.78 576.7 270.83C576.7 250.91 589.13 240.46 618.92 240.06L632.93 239.86L632.93 229.6C632.93 216.18 624.45 212.04 613.2 212.04C605.31 212.04 597.22 214.61 590.7 217.17C589.92 217.56 588.93 217.56 587.94 217.56C583.99 217.56 580.64 214.41 580.64 210.26C580.64 207.1 582.8 204.33 585.58 203.34C596.23 199.8 607.87 198.61 615.17 198.61C636.68 198.61 650.67 208.08 650.67 227.81L650.67 276.34C650.67 281.47 652.84 283.44 655.61 284.23C658.97 285.24 661.53 288.4 661.53 292.15ZM632.74 252.29L620.7 252.49C606.3 252.7 595.26 255.85 595.26 269.85C595.26 280.69 602.16 286.81 609.85 286.81C614.59 286.81 632.74 284.64 632.74 265.51L632.74 252.29Z" />
			<path id="Layer" class="shp0" d="M788.77 199.03C793.7 199.03 797.25 203.96 796.07 208.7L773.97 291.95C772.79 296.68 768.25 300.43 763.12 300.43C757.8 300.43 753.45 296.68 752.28 291.74L740.24 242.62L734.72 215L729.59 242.23L718.94 290.96C717.75 296.29 713.01 300.43 707.29 300.43C701.96 300.43 697.23 296.48 695.85 291.55L674.34 210.08C672.96 204.56 676.91 199.03 682.82 199.03C686.96 199.03 690.32 202.18 691.31 205.94L702.55 253.28L707.67 280.11L712.41 253.28L722.08 209.09C723.46 203.17 728.78 198.43 735.29 198.43C741.61 198.43 746.94 202.77 748.31 208.89L758.38 253.47L763.11 280.69L768.83 253.47L781.45 204.74C782.26 201.6 785.22 199.03 788.77 199.03Z" />
			<path id="Layer" fill-rule="evenodd" class="shp0" d="M895.1 292.15C895.1 296.88 890.97 300.63 886.23 300.04C880.9 299.44 875.57 298.06 871.83 294.71C869.26 292.34 868.27 289.58 867.88 287.01C864.52 293.72 856.04 300.23 840.85 300.23C820.93 300.23 810.27 288.78 810.27 270.83C810.27 250.91 822.7 240.46 852.49 240.06L866.5 239.86L866.5 229.6C866.5 216.18 858.02 212.04 846.77 212.04C838.88 212.04 830.79 214.61 824.27 217.17C823.49 217.56 822.5 217.56 821.51 217.56C817.56 217.56 814.21 214.41 814.21 210.26C814.21 207.1 816.37 204.33 819.15 203.34C829.8 199.8 841.44 198.61 848.74 198.61C870.25 198.61 884.24 208.08 884.24 227.81L884.24 276.34C884.24 281.47 886.41 283.44 889.18 284.23C892.54 285.24 895.1 288.4 895.1 292.15ZM866.28 252.29L866.28 252.29L866.3 252.29L866.28 252.29ZM854.26 252.49C839.85 252.7 828.8 255.85 828.8 269.85C828.8 280.69 835.7 286.81 843.4 286.81C848.13 286.81 866.28 284.64 866.28 265.51L866.28 252.29L854.26 252.49Z" />
			<path id="Layer" class="shp0" d="M960 292.15C960 295.5 957.63 298.07 954.48 298.86C950.53 299.85 946.79 300.24 942.65 300.24C927.25 300.24 915.81 294.72 915.81 274.39L915.81 213.24L908.71 213.24C905.17 213.24 902 210.28 902 206.74C902 202.99 905.15 200.03 908.71 200.03L915.81 200.03L915.81 181.48C915.81 176.75 919.76 172.61 924.69 172.61C929.62 172.61 933.56 176.75 933.56 181.48L933.56 200.03L950.72 200.03C954.27 200.03 957.43 202.99 957.43 206.53C957.43 210.28 954.28 213.24 950.72 213.24L933.56 213.24L933.56 273.21C933.56 282.68 937.3 286.63 944.01 286.63C946.38 286.63 948.75 286.24 951.32 285.44C955.47 284.25 960 287.61 960 292.15Z" />
			<path id="Layer" class="shp2" d="" />
			<path id="Layer" class="shp2" d="M181.04 62.73L126.75 62.73L126.15 62.68C102.72 60.69 79.92 67.95 61.95 83.11C43.97 98.27 32.99 119.53 31 142.94C28.05 177.71 45.64 209.77 74.26 226.44L61.96 252.56C22.68 230.81 -1.66 187.53 2.33 140.51C4.96 109.43 19.56 81.24 43.4 61.11C67.09 41.12 97.1 31.51 127.96 33.96L180.43 33.96L181.04 62.73Z" />
			<path id="Layer" class="shp1" d="M212.37 82.92C192.48 82.92 176.41 66.85 176.41 46.96C176.41 27.07 192.48 11 212.37 11C232.25 11 248.33 27.07 248.33 46.96C248.33 66.85 232.25 82.92 212.37 82.92Z" />
			<path id="Layer" class="shp1" d="M96.84 288.29C76.96 288.29 60.88 272.21 60.88 252.33C60.88 232.44 76.96 216.37 96.84 216.37C116.73 216.37 132.8 232.44 132.8 252.33C132.8 272.21 116.73 288.29 96.84 288.29Z" />
			<path id="Layer" class="shp2" d="M67.68 343.36L120.47 343.36L120.89 343.39C169.36 346.22 211.05 309.07 213.87 260.62C216.68 212.31 179.76 170.69 131.51 167.66L97.49 167.66C89.54 167.66 83.1 161.22 83.1 153.27C83.1 145.32 89.54 138.88 97.49 138.88L132.78 138.9C197.07 142.64 246.33 197.99 242.59 262.28C238.99 324.27 187.4 372.3 126.07 372.3C123.94 372.3 121.8 372.23 119.65 372.12L64.84 372.12" />
			<path id="Layer" class="shp1" d="M35.96 390.88C16.07 390.88 0 374.8 0 354.92C0 335.03 16.07 318.96 35.96 318.96C55.85 318.96 71.92 335.03 71.92 354.92C71.92 374.8 55.85 390.88 35.96 390.88Z" />
		</g>
	</g>
</svg>