<?xml version="1.0" encoding="utf-8"?>
<!-- Generator: Adobe Illustrator 24.1.1, SVG Export Plug-In . SVG Version: 6.00 Build 0)  -->
<svg version="1.1" id="Layer_1" xmlns="http://www.w3.org/2000/svg" xmlns:xlink="http://www.w3.org/1999/xlink" x="0px" y="0px"
	 viewBox="0 0 901 360" style="enable-background:new 0 0 901 360;" xml:space="preserve">
<style type="text/css">
	.st0{fill:#E5262B;}
	.st1{fill:#5A5A5C;}
	.st2{opacity:0.2;clip-path:url(#SVGID_2_);fill:url(#SVGID_3_);}
	.st3{opacity:0.2;clip-path:url(#SVGID_5_);fill:url(#SVGID_6_);}
	.st4{opacity:0.2;clip-path:url(#SVGID_5_);fill:url(#SVGID_7_);}
	.st5{fill:none;}
</style>
<g>
	<path class="st0" d="M367.38,178.41c-7.47,0-14.37-1.21-20.7-3.62c-6.33-2.41-11.82-5.81-16.46-10.18s-8.29-9.58-10.93-15.64
		c-2.64-6.06-3.96-12.73-3.96-20.01v-0.27c0-6.92,1.29-13.41,3.87-19.47c2.58-6.06,6.14-11.34,10.67-15.85
		c4.53-4.51,9.96-8.04,16.28-10.59c6.32-2.55,13.17-3.83,20.55-3.83c8.47,0,15.78,1.23,21.93,3.69c6.15,2.46,11.77,5.87,16.87,10.25
		l-15.57,18.72c-3.46-2.91-6.99-5.14-10.59-6.69c-3.6-1.55-7.77-2.32-12.5-2.32c-3.46,0-6.67,0.68-9.63,2.05
		c-2.96,1.37-5.53,3.23-7.72,5.6c-2.19,2.37-3.92,5.15-5.19,8.33c-1.28,3.19-1.91,6.6-1.91,10.25v0.27c0,3.83,0.64,7.38,1.92,10.66
		c1.28,3.28,3.08,6.08,5.41,8.4c2.33,2.32,5.07,4.15,8.23,5.46c3.15,1.32,6.65,1.98,10.49,1.98c6.21,0,11.33-1.32,15.35-3.96v-11.61
		h-18.85v-19.4h43.99v43.03c-5.1,4.19-11.11,7.7-18.03,10.52C383.96,177,376.13,178.41,367.38,178.41z"/>
	<path class="st0" d="M443.34,178.14c-3.55,0-6.83-0.5-9.84-1.5c-3.01-1-5.62-2.46-7.86-4.37c-2.23-1.91-3.99-4.28-5.26-7.1
		c-1.28-2.82-1.91-6.1-1.91-9.84v-0.27c0-3.83,0.7-7.19,2.12-10.11c1.41-2.91,3.37-5.33,5.87-7.24c2.5-1.91,5.53-3.37,9.08-4.37
		c3.55-1,7.51-1.5,11.89-1.5c3.46,0,6.76,0.3,9.9,0.89c3.14,0.59,5.76,1.25,7.86,1.98v-1.23c0-3.83-1.21-6.78-3.62-8.88
		c-2.41-2.09-6.13-3.14-11.13-3.14c-3.92,0-7.47,0.37-10.66,1.09c-3.19,0.73-6.42,1.73-9.7,3.01l-5.33-18.31
		c4.19-1.73,8.63-3.12,13.32-4.17c4.69-1.05,10.22-1.57,16.6-1.57c6.65,0,12.27,0.77,16.87,2.32c4.6,1.55,8.35,3.78,11.27,6.69
		c2.82,2.73,4.85,6.03,6.08,9.9c1.23,3.87,1.84,8.4,1.84,13.59v42.49h-25.68v-7.65c-2.55,2.82-5.58,5.08-9.09,6.76
		C452.47,177.29,448.26,178.14,443.34,178.14z M452.63,161.88c3.83,0,6.92-1.09,9.29-3.28c2.37-2.19,3.55-5.14,3.55-8.88v-3.42
		c-1.28-0.55-2.8-1-4.58-1.37c-1.78-0.36-3.62-0.55-5.53-0.55c-3.83,0-6.76,0.84-8.81,2.53c-2.05,1.69-3.07,3.89-3.07,6.63v0.27
		c0,2.55,0.86,4.53,2.6,5.94C447.8,161.17,449.99,161.88,452.63,161.88z"/>
	<path class="st0" d="M504,76.77h26.09v50.55l20.08-24.73h29.37l-25.68,29.65l26.37,44.26h-28.55l-14.89-25.14l-6.69,7.79v17.35H504
		V76.77z"/>
	<path class="st0" d="M586.38,76.77h26.09v50.55l20.08-24.73h29.37l-25.68,29.65l26.37,44.26h-28.55l-14.89-25.14l-6.69,7.79v17.35
		h-26.09V76.77z"/>
	<path class="st0" d="M705.38,178.27c-5.83,0-11.16-0.94-15.98-2.8c-4.83-1.87-9-4.46-12.5-7.79c-3.51-3.32-6.24-7.35-8.2-12.09
		c-1.96-4.73-2.94-9.97-2.94-15.71v-0.27c0-5.37,0.91-10.4,2.73-15.1c1.82-4.69,4.39-8.79,7.72-12.3c3.32-3.51,7.26-6.26,11.82-8.27
		c4.55-2,9.56-3.01,15.03-3.01c6.37,0,11.91,1.09,16.6,3.28c4.69,2.19,8.56,5.12,11.61,8.81c3.05,3.69,5.33,7.97,6.83,12.84
		c1.5,4.87,2.25,10.04,2.25,15.51c0,0.82,0,1.69,0,2.6c0,0.91-0.05,1.82-0.14,2.73h-49.46c1,4.1,2.89,7.15,5.67,9.15
		c2.78,2,6.22,3.01,10.31,3.01c3.1,0,5.94-0.59,8.54-1.78c2.6-1.18,5.21-3.1,7.86-5.74l14.35,11.89c-3.55,4.56-7.95,8.2-13.18,10.93
		C719.06,176.91,712.75,178.27,705.38,178.27z M716.03,133.46c-0.46-4.1-1.82-7.35-4.1-9.77c-2.28-2.41-5.19-3.62-8.74-3.62
		c-3.46,0-6.28,1.21-8.47,3.62c-2.19,2.41-3.64,5.67-4.37,9.77H716.03z"/>
	<path class="st0" d="M751.42,102.59h26.09v10.38c1.17-1.55,2.47-3.05,3.91-4.51c1.44-1.46,3.06-2.73,4.86-3.83
		c1.8-1.09,3.78-1.98,5.94-2.66c2.16-0.68,4.54-1.02,7.15-1.02c7.97,0,14.17,2.41,18.61,7.24c4.44,4.83,6.66,11.48,6.66,19.95v48.36
		h-26.09v-40.03c0-4.1-0.95-7.19-2.83-9.29c-1.89-2.09-4.36-3.14-7.42-3.14c-3.15,0-5.73,1.05-7.76,3.14
		c-2.02,2.1-3.03,5.19-3.03,9.29v40.03h-26.09V102.59z"/>
</g>
<g>
	<path class="st1" d="M321.08,192.4h13.01v74.13h-13.01V192.4z"/>
	<path class="st1" d="M352.65,210.62h13.01v8.77c0.92-1.35,1.93-2.62,3.03-3.79c1.1-1.17,2.38-2.23,3.83-3.15s3.05-1.66,4.79-2.19
		c1.74-0.53,3.7-0.8,5.9-0.8c6.38,0,11.31,1.94,14.78,5.82c3.47,3.88,5.21,9.11,5.21,15.67v35.58h-13.01v-31.69
		c0-4.37-1.04-7.73-3.12-10.09c-2.08-2.36-5.02-3.54-8.83-3.54c-3.74,0-6.77,1.22-9.09,3.65c-2.33,2.43-3.49,5.83-3.49,10.19v31.48
		h-13.01V210.62z"/>
	<path class="st1" d="M442.02,267.7c-3.34,0-6.58-0.64-9.71-1.91c-3.13-1.27-5.9-3.14-8.32-5.61c-2.42-2.47-4.37-5.51-5.87-9.11
		c-1.49-3.6-2.24-7.73-2.24-12.39v-0.21c0-4.66,0.73-8.79,2.18-12.39c1.45-3.6,3.39-6.64,5.8-9.11c2.41-2.47,5.2-4.34,8.35-5.61
		c3.16-1.27,6.4-1.91,9.74-1.91c4.61,0,8.44,0.99,11.49,2.97c3.05,1.98,5.6,4.27,7.66,6.88v-30.08h13.01v77.31h-13.01l0.11-9.32
		c-2.06,2.9-4.64,5.37-7.73,7.41S446.57,267.7,442.02,267.7z M445.06,256.58c2.13,0,4.18-0.42,6.17-1.27
		c1.98-0.85,3.72-2.06,5.21-3.65c1.49-1.59,2.67-3.48,3.56-5.67c0.89-2.19,1.33-4.62,1.33-7.31v-0.21c0-2.68-0.44-5.14-1.33-7.36
		c-0.89-2.22-2.07-4.11-3.56-5.67c-1.49-1.55-3.22-2.75-5.21-3.6c-1.98-0.85-4.04-1.27-6.17-1.27c-2.2,0-4.27,0.41-6.22,1.22
		c-1.95,0.81-3.67,2-5.16,3.55c-1.49,1.55-2.66,3.44-3.51,5.67c-0.85,2.22-1.27,4.71-1.27,7.47v0.21c0,2.68,0.42,5.14,1.27,7.36
		c0.85,2.22,2.02,4.11,3.51,5.67c1.49,1.55,3.21,2.75,5.16,3.6C440.79,256.15,442.87,256.58,445.06,256.58z"/>
	<path class="st1" d="M517,267.8c-4.27,0-8.23-0.76-11.89-2.28c-3.66-1.52-6.83-3.58-9.49-6.2c-2.67-2.61-4.75-5.68-6.24-9.21
		c-1.49-3.53-2.24-7.27-2.24-11.23v-0.21c0-4.02,0.76-7.8,2.29-11.33c1.53-3.53,3.63-6.62,6.29-9.27c2.67-2.65,5.83-4.75,9.49-6.3
		c3.66-1.55,7.66-2.33,12-2.33c4.34,0,8.34,0.76,12,2.28c3.66,1.52,6.83,3.6,9.49,6.25s4.75,5.72,6.24,9.21s2.24,7.25,2.24,11.28
		v0.21c0,3.95-0.77,7.7-2.29,11.23c-1.53,3.53-3.63,6.62-6.29,9.27c-2.67,2.65-5.85,4.75-9.55,6.3
		C525.35,267.03,521.34,267.8,517,267.8z M517.21,256.68c2.61,0,4.96-0.48,7.05-1.43c2.08-0.95,3.87-2.24,5.35-3.87
		c1.48-1.62,2.61-3.51,3.39-5.67c0.78-2.15,1.17-4.43,1.17-6.83v-0.21c0-2.47-0.42-4.8-1.27-6.99c-0.85-2.19-2.03-4.09-3.55-5.72
		c-1.52-1.62-3.32-2.91-5.41-3.87c-2.08-0.95-4.4-1.43-6.94-1.43c-2.54,0-4.86,0.48-6.94,1.43c-2.08,0.95-3.87,2.22-5.35,3.81
		c-1.48,1.59-2.61,3.48-3.39,5.67c-0.78,2.19-1.17,4.48-1.17,6.88v0.21c0,2.47,0.42,4.78,1.27,6.94c0.85,2.15,2.03,4.06,3.55,5.72
		c1.52,1.66,3.32,2.96,5.41,3.92S514.74,256.68,517.21,256.68z"/>
	<path class="st1" d="M560.3,210.62h13.01v8.77c0.92-1.35,1.93-2.62,3.03-3.79c1.1-1.17,2.38-2.23,3.83-3.15s3.05-1.66,4.79-2.19
		c1.74-0.53,3.7-0.8,5.9-0.8c6.38,0,11.31,1.94,14.78,5.82c3.47,3.88,5.21,9.11,5.21,15.67v35.58h-13.01v-31.69
		c0-4.37-1.04-7.73-3.12-10.09c-2.08-2.36-5.02-3.54-8.83-3.54c-3.74,0-6.77,1.22-9.09,3.65c-2.33,2.43-3.49,5.83-3.49,10.19v31.48
		H560.3V210.62z"/>
	<path class="st1" d="M652.23,267.8c-4.05,0-7.84-0.71-11.36-2.12s-6.58-3.39-9.17-5.93c-2.6-2.54-4.64-5.59-6.13-9.16
		c-1.49-3.56-2.24-7.5-2.24-11.81v-0.21c0-4.02,0.67-7.8,2.03-11.33c1.35-3.53,3.25-6.62,5.71-9.27s5.35-4.73,8.69-6.25
		c3.34-1.52,7.04-2.28,11.09-2.28c4.48,0,8.41,0.81,11.79,2.44c3.38,1.63,6.19,3.81,8.43,6.57s3.93,5.95,5.07,9.58
		c1.14,3.64,1.71,7.47,1.71,11.49c0,0.57-0.02,1.15-0.05,1.75c-0.04,0.6-0.09,1.22-0.16,1.85h-41.38c0.71,4.59,2.54,8.1,5.49,10.54
		c2.95,2.44,6.52,3.65,10.72,3.65c3.2,0,5.97-0.56,8.32-1.69c2.35-1.13,4.66-2.79,6.93-4.98l7.57,6.67
		c-2.7,3.18-5.92,5.72-9.65,7.63S657.42,267.8,652.23,267.8z M665.03,234.66c-0.21-2.05-0.68-3.97-1.39-5.77
		c-0.71-1.8-1.67-3.35-2.88-4.66c-1.21-1.31-2.65-2.35-4.32-3.12c-1.67-0.78-3.57-1.17-5.71-1.17c-3.98,0-7.27,1.36-9.87,4.08
		c-2.6,2.72-4.18,6.27-4.75,10.64H665.03z"/>
	<path class="st1" d="M710.15,267.59c-4.05,0-8.16-0.71-12.32-2.14c-4.16-1.43-8.02-3.53-11.57-6.31l5.76-8.7
		c3.06,2.26,6.17,3.97,9.33,5.14c3.16,1.17,6.2,1.75,9.12,1.75c2.77,0,4.92-0.55,6.45-1.64c1.53-1.09,2.29-2.55,2.29-4.39v-0.21
		c0-1.06-0.34-1.97-1.01-2.75c-0.68-0.77-1.6-1.44-2.77-2.01c-1.17-0.56-2.52-1.09-4.05-1.59c-1.53-0.49-3.11-0.99-4.75-1.48
		c-2.06-0.56-4.14-1.23-6.24-2.01c-2.1-0.77-3.98-1.78-5.65-3.01c-1.67-1.23-3.04-2.77-4.11-4.6c-1.07-1.83-1.6-4.09-1.6-6.76v-0.21
		c0-2.61,0.52-4.97,1.55-7.08c1.03-2.11,2.45-3.91,4.27-5.39c1.81-1.48,3.95-2.61,6.4-3.38s5.07-1.16,7.84-1.16
		c3.55,0,7.15,0.57,10.77,1.71c3.63,1.14,6.93,2.71,9.92,4.71l-5.12,9.15c-2.7-1.62-5.44-2.91-8.21-3.87s-5.33-1.43-7.68-1.43
		c-2.49,0-4.43,0.53-5.81,1.58c-1.39,1.06-2.08,2.4-2.08,4.01v0.21c0,0.99,0.35,1.85,1.07,2.59c0.71,0.74,1.65,1.41,2.83,2.01
		s2.52,1.16,4.05,1.69c1.53,0.53,3.11,1.04,4.75,1.53c2.06,0.63,4.12,1.37,6.19,2.22c2.06,0.85,3.93,1.88,5.6,3.12
		c1.67,1.23,3.04,2.73,4.11,4.49c1.07,1.76,1.6,3.91,1.6,6.44v0.21c0,2.96-0.53,5.53-1.6,7.71c-1.07,2.18-2.54,4-4.43,5.44
		c-1.88,1.44-4.11,2.54-6.67,3.28C715.8,267.22,713.06,267.59,710.15,267.59z"/>
	<path class="st1" d="M744.38,189.86h13.97v12.18h-13.97V189.86z M744.92,210.62h13.01v55.91h-13.01V210.62z"/>
	<path class="st1" d="M809.12,266.53v-6.88c-1.92,2.26-4.37,4.17-7.36,5.72c-2.99,1.55-6.61,2.33-10.88,2.33
		c-2.7,0-5.26-0.37-7.68-1.11c-2.42-0.74-4.53-1.83-6.35-3.28c-1.81-1.45-3.27-3.25-4.37-5.4c-1.1-2.15-1.65-4.64-1.65-7.47v-0.21
		c0-3.11,0.57-5.81,1.71-8.1c1.14-2.29,2.72-4.2,4.75-5.72c2.03-1.52,4.44-2.65,7.25-3.39c2.81-0.74,5.85-1.11,9.12-1.11
		c3.41,0,6.31,0.21,8.69,0.64c2.38,0.42,4.67,0.99,6.88,1.69v-1.06c0-3.88-1.19-6.85-3.57-8.9c-2.38-2.05-5.81-3.07-10.29-3.07
		c-3.2,0-6.04,0.32-8.53,0.95c-2.49,0.64-5.01,1.48-7.57,2.54l-3.52-10.27c3.13-1.41,6.33-2.54,9.6-3.39
		c3.27-0.85,7.22-1.27,11.84-1.27c8.39,0,14.61,2.06,18.66,6.19s6.08,9.94,6.08,17.42v33.15H809.12z M809.44,243.13
		c-1.64-0.64-3.57-1.17-5.81-1.59c-2.24-0.42-4.6-0.64-7.09-0.64c-4.05,0-7.22,0.78-9.49,2.33c-2.28,1.55-3.41,3.67-3.41,6.35v0.21
		c0,2.68,1.05,4.73,3.15,6.14c2.1,1.41,4.67,2.12,7.73,2.12c2.13,0,4.11-0.28,5.92-0.85c1.81-0.56,3.39-1.36,4.75-2.38
		c1.35-1.02,2.4-2.26,3.15-3.71c0.75-1.45,1.12-3.05,1.12-4.82V243.13z"/>
</g>
<g>
	<path class="st1" d="M265.39,263.99c2.31-7.35,6.91-33.31-2.72-45.15c-11.33-13.95-17.43-18.09-35.3-27.46
		c-17.87-9.37-23.76-14.39-31.16-23.98c-7.41-9.59-10.46-22.01-10.46-22.01s-11.55,40.54-5.89,61.46
		c5.67,20.92,16.58,30.21,13.08,31.63c-0.98,0.4-3.44,0.9-6.46,1.41c-32.11-0.76-57.91-27.02-57.91-59.31
		c0-32.77,26.57-59.35,59.35-59.35c7.03,0,13.78,1.23,20.05,3.48c2.84,0.96,5.87,1.51,9.03,1.51c15.47,0,28.02-12.54,28.02-28.02
		c0-9.32-2.46-21.25-20.6-26.91c-17.44-5.2-27.77-5.79-36.49-5.79c-63.56,0-115.08,51.52-115.08,115.07
		c0,63.56,51.52,115.08,115.08,115.08c28.92,0,55.3-10.72,75.51-28.33C263.89,266.91,264.79,265.89,265.39,263.99z"/>
	<g>
		<defs>
			<circle id="SVGID_1_" cx="258.75" cy="158.82" r="28.8"/>
		</defs>
		<clipPath id="SVGID_2_">
			<use xlink:href="#SVGID_1_"  style="overflow:visible;"/>
		</clipPath>
		<linearGradient id="SVGID_3_" gradientUnits="userSpaceOnUse" x1="254.7556" y1="85.4142" x2="421.9339" y2="181.9347">
			<stop  offset="0" style="stop-color:#FFFFFF"/>
			<stop  offset="0.1413" style="stop-color:#FFFFFF;stop-opacity:0.8587"/>
			<stop  offset="1" style="stop-color:#FFFFFF;stop-opacity:0"/>
		</linearGradient>
		<path class="st2" d="M434.85,133.67c0,53.29-43.21,96.51-96.51,96.51c-53.3,0-96.5-43.21-96.5-96.51c0-53.3,43.2-96.51,96.5-96.51
			C391.64,37.17,434.85,80.38,434.85,133.67z"/>
	</g>
	<g>
		<defs>
			<path id="SVGID_4_" d="M265.39,263.99c2.31-7.35,6.91-33.31-2.72-45.15c-11.33-13.95-17.43-18.09-35.3-27.46
				c-17.87-9.37-23.76-14.39-31.16-23.98c-7.41-9.59-10.46-22.01-10.46-22.01s-11.55,40.54-5.89,61.46
				c5.67,20.92,16.58,30.21,13.08,31.63c-0.98,0.4-3.44,0.9-6.46,1.41c-32.11-0.76-57.91-27.02-57.91-59.31
				c0-32.77,26.57-59.35,59.35-59.35c7.03,0,13.78,1.23,20.05,3.48c2.84,0.96,5.87,1.51,9.03,1.51c15.47,0,28.02-12.54,28.02-28.02
				c0-9.32-2.46-21.25-20.6-26.91c-17.44-5.2-27.77-5.79-36.49-5.79c-63.56,0-115.08,51.52-115.08,115.07
				c0,63.56,51.52,115.08,115.08,115.08c28.92,0,55.3-10.72,75.51-28.33C263.89,266.91,264.79,265.89,265.39,263.99z"/>
		</defs>
		<clipPath id="SVGID_5_">
			<use xlink:href="#SVGID_4_"  style="overflow:visible;"/>
		</clipPath>
		<linearGradient id="SVGID_6_" gradientUnits="userSpaceOnUse" x1="148.4603" y1="113.7379" x2="315.6401" y2="210.2592">
			<stop  offset="0" style="stop-color:#FFFFFF"/>
			<stop  offset="0.1413" style="stop-color:#FFFFFF;stop-opacity:0.8587"/>
			<stop  offset="1" style="stop-color:#FFFFFF;stop-opacity:0"/>
		</linearGradient>
		<path class="st3" d="M328.55,162c0,53.3-43.2,96.51-96.51,96.51c-53.3,0-96.5-43.21-96.5-96.51c0-53.3,43.2-96.51,96.5-96.51
			C285.35,65.49,328.55,108.7,328.55,162z"/>
		<linearGradient id="SVGID_7_" gradientUnits="userSpaceOnUse" x1="226.1761" y1="290.9413" x2="226.1761" y2="65.4974">
			<stop  offset="0" style="stop-color:#FFFFFF"/>
			<stop  offset="0.1413" style="stop-color:#FFFFFF;stop-opacity:0.8587"/>
			<stop  offset="1" style="stop-color:#FFFFFF;stop-opacity:0"/>
		</linearGradient>
		<path class="st4" d="M114.18,65.5c-17.91,23.59-28.54,53-28.54,84.9c0,77.62,62.92,140.54,140.54,140.54
			c77.62,0,140.54-62.92,140.54-140.54c0-31.9-10.64-61.31-28.54-84.9H114.18z"/>
	</g>
	<circle class="st0" cx="258.75" cy="158.82" r="28.8"/>
</g>
<rect id="_x3C_Slice_x3E__1_" x="69.94" y="64.78" class="st5" width="756.85" height="234.85"/>
</svg>
