<?xml version="1.0" encoding="utf-8"?>
<!-- Generator: Adobe Illustrator 24.1.1, SVG Export Plug-In . SVG Version: 6.00 Build 0)  -->
<svg version="1.1" xmlns="http://www.w3.org/2000/svg" xmlns:xlink="http://www.w3.org/1999/xlink" x="0px" y="0px"
	 viewBox="0 0 960 400" style="enable-background:new 0 0 960 400;" xml:space="preserve">
<style type="text/css">
	.st0{fill:#FFFFFF;stroke:#FFFFFF;stroke-width:2.7516;stroke-linecap:round;stroke-linejoin:round;stroke-miterlimit:10;}
	.st1{fill:#29ABE2;}
	.st2{fill:#FFFFFF;}
</style>
<g id="Layer_9">
</g>
<g id="Layer_16">
</g>
<g id="Layer_15">
</g>
<g id="Layer_14">
</g>
<g id="Layer_13">
</g>
<g id="Layer_12">
</g>
<g id="Layer_11">
</g>
<g id="Layer_10">
</g>
<g id="Layer_8">
</g>
<g id="Layer_7">
</g>
<g id="Layer_6">
</g>
<g id="Layer_5">
</g>
<g id="Layer_4">
</g>
<g id="Layer_3">
</g>
<g id="Layer_2">
	<g>
		<path class="st0" d="M359.88,266.13c0-3.58,2.81-6.39,6.39-6.39c0,0,3.9,1.25,7.01,2.49c5.77,2.65,12.78,4.68,20.26,4.68
			c12.31,0,20.88-5.3,20.88-16.83c0-11.06-8.26-14.81-21.82-19.33c-16.99-5.61-32.57-11.38-32.57-31.95
			c0-19.01,14.18-26.96,34.29-26.96c8.73,0,16.36,1.56,25.56,5.3c2.34,0.94,4.21,3.27,4.21,5.92c0,3.58-2.96,6.55-6.55,6.55
			c-1.09,0-2.03-0.16-2.81-0.62c-5.92-2.81-13.25-5.3-20.57-5.3c-10.44,0-18.55,4.21-18.55,14.34c0,11.84,12.16,16.83,22.91,20.42
			c14.81,4.99,31.48,9.35,31.48,30.7c0,21.66-16.99,29.61-37.25,29.61c-12.94,0-21.66-3.43-29.14-6.7
			C361.28,270.97,359.88,268.78,359.88,266.13z"/>
		<path class="st0" d="M507.62,233.09v3.12c-0.31,4.99-3.27,7.48-8.1,7.48h-42.08c1.25,14.34,7.48,24.16,23.07,24.16
			c5.45,0,11.22-1.25,15.74-2.81c0.94-0.31,1.87-0.78,3.12-0.78c3.12,0,5.14,2.49,5.14,5.45c0,2.65-1.56,4.36-3.58,5.14
			c-5.61,2.03-13.56,3.58-21.51,3.58c-24.78,0-36.63-15.43-36.63-40.05c0-25.72,12.94-40.21,34.13-40.21
			C493.6,198.18,507.62,207.22,507.62,233.09z M493.13,228.89c0-13.09-5.92-20.11-16.52-20.11c-12.47,0-18.55,9.66-19.33,25.25
			h35.69C493.13,233.09,493.13,231.22,493.13,228.89z"/>
		<path class="st0" d="M518.22,302.92c-0.47,0.16-1.09,0.31-1.87,0.31c-3.43,0-6.23-2.8-6.23-6.23c0-2.81,1.87-5.14,4.21-5.92
			c7.17-2.65,11.07-6.39,11.07-14.49v-71.07c0-3.74,3.12-7.01,7.01-7.01c3.9,0,7.01,3.27,7.01,7.01v71.07
			C539.42,289.82,530.53,299.02,518.22,302.92z M541.13,180.73c0-5.92-3.9-8.26-9.04-8.26c-5.14,0-9.2,2.34-9.2,8.26
			c0,5.92,4.05,8.42,9.2,8.42C537.23,189.14,541.13,186.65,541.13,180.73z"/>
		<circle class="st1" cx="531.25" cy="171.87" r="19.43"/>
		<path class="st0" d="M623.42,272.06c0,3.74-3.27,6.7-7.01,6.23c-4.21-0.47-8.42-1.56-11.38-4.21c-2.03-1.87-2.81-4.05-3.12-6.08
			c-2.65,5.3-9.35,10.44-21.35,10.44c-15.74,0-24.16-9.04-24.16-23.22c0-15.74,9.82-24,33.35-24.31l11.07-0.16v-8.11
			c0-10.6-6.7-13.87-15.59-13.87c-6.23,0-12.62,2.03-17.77,4.05c-0.62,0.31-1.4,0.31-2.18,0.31c-3.12,0-5.77-2.49-5.77-5.77
			c0-2.49,1.71-4.68,3.9-5.46c8.42-2.8,17.61-3.74,23.38-3.74c16.99,0,28.05,7.48,28.05,23.07v38.34c0,4.05,1.71,5.61,3.9,6.23
			C621.39,266.6,623.42,269.1,623.42,272.06z M600.67,240.57l-9.51,0.16c-11.38,0.16-20.1,2.65-20.1,13.71
			c0,8.57,5.45,13.4,11.53,13.4c3.74,0,18.08-1.71,18.08-16.83V240.57z"/>
		<path class="st0" d="M723.94,198.49c3.9,0,6.7,3.9,5.77,7.64l-17.46,65.77c-0.93,3.74-4.52,6.7-8.57,6.7
			c-4.21,0-7.64-2.96-8.57-6.86l-9.51-38.81l-4.36-21.82l-4.05,21.51l-8.42,38.5c-0.94,4.21-4.68,7.48-9.2,7.48
			c-4.21,0-7.95-3.12-9.04-7.01l-16.99-64.37c-1.09-4.36,2.03-8.73,6.7-8.73c3.27,0,5.92,2.49,6.7,5.46l8.88,37.4l4.05,21.2
			l3.74-21.2l7.64-34.91c1.09-4.68,5.3-8.42,10.44-8.42c4.99,0,9.2,3.43,10.29,8.26l7.95,35.22l3.74,21.51l4.52-21.51l9.97-38.5
			C718.8,200.52,721.14,198.49,723.94,198.49z"/>
		<path class="st0" d="M807.95,272.06c0,3.74-3.27,6.7-7.01,6.23c-4.21-0.47-8.42-1.56-11.38-4.21c-2.03-1.87-2.81-4.05-3.12-6.08
			c-2.65,5.3-9.35,10.44-21.35,10.44c-15.74,0-24.16-9.04-24.16-23.22c0-15.74,9.82-24,33.35-24.31l11.07-0.16v-8.11
			c0-10.6-6.7-13.87-15.59-13.87c-6.23,0-12.62,2.03-17.77,4.05c-0.62,0.31-1.4,0.31-2.18,0.31c-3.12,0-5.77-2.49-5.77-5.77
			c0-2.49,1.71-4.68,3.9-5.46c8.42-2.8,17.61-3.74,23.38-3.74c16.99,0,28.05,7.48,28.05,23.07v38.34c0,4.05,1.71,5.61,3.9,6.23
			C805.92,266.6,807.95,269.1,807.95,272.06z M785.19,240.57l-9.51,0.16c-11.38,0.16-20.11,2.65-20.11,13.71
			c0,8.57,5.45,13.4,11.53,13.4c3.74,0,18.08-1.71,18.08-16.83V240.57z"/>
		<path class="st0" d="M859.22,272.06c0,2.65-1.87,4.68-4.36,5.3c-3.12,0.78-6.08,1.09-9.35,1.09c-12.16,0-21.2-4.36-21.2-20.42
			v-48.31h-5.61c-2.8,0-5.3-2.34-5.3-5.14c0-2.96,2.49-5.3,5.3-5.3h5.61v-14.65c0-3.74,3.12-7.01,7.01-7.01
			c3.9,0,7.01,3.27,7.01,7.01v14.65h13.56c2.8,0,5.3,2.34,5.3,5.14c0,2.96-2.49,5.3-5.3,5.3h-13.56v47.38
			c0,7.48,2.96,10.6,8.26,10.6c1.87,0,3.74-0.31,5.77-0.94C855.64,265.82,859.22,268.47,859.22,272.06z"/>
		<path class="st2" d="M271.76,79.44"/>
		<path class="st2" d="M243.81,90.81h-42.89l-0.48-0.04c-18.51-1.57-36.52,4.16-50.72,16.14c-14.2,11.98-22.88,28.77-24.45,47.27
			c-2.33,27.47,11.57,52.8,34.18,65.97l-9.72,20.63c-31.03-17.18-50.26-51.37-47.11-88.52c2.08-24.56,13.61-46.83,32.45-62.73
			c18.71-15.79,42.42-23.39,66.8-21.45h41.46L243.81,90.81z"/>
		<circle class="st1" cx="268.56" cy="78.35" r="28.41"/>
		<circle class="st1" cx="177.29" cy="240.6" r="28.41"/>
		<path class="st2" d="M154.25,312.52h41.71l0.33,0.02c38.29,2.24,71.23-27.11,73.46-65.39c2.22-38.17-26.95-71.05-65.07-73.44
			H177.8c-6.28,0-11.37-5.09-11.37-11.37s5.09-11.37,11.37-11.37l27.88,0.02c50.79,2.95,89.71,46.68,86.76,97.47
			c-2.85,48.98-43.61,86.92-92.06,86.92c-1.68,0-3.37-0.05-5.07-0.14h-43.3"/>
		<circle class="st1" cx="129.19" cy="321.65" r="28.41"/>
	</g>
</g>
</svg>
