<svg xmlns="http://www.w3.org/2000/svg" viewBox="0 0 960 400" width="960" height="400">
	<style>
		tspan { white-space:pre }
		.shp0 { fill: #1a5cb7;stroke: #1a5cb7;stroke-linecap:round;stroke-linejoin:round;stroke-width: 2.752 } 
		.shp1 { fill: #29abe2 } 
		.shp2 { fill: #ffffff } 
	</style>
	<g id="Layer_9">
	</g>
	<g id="Layer_16">
	</g>
	<g id="Layer_15">
	</g>
	<g id="Layer_14">
	</g>
	<g id="Layer_13">
	</g>
	<g id="Layer_12">
	</g>
	<g id="Layer_11">
	</g>
	<g id="Layer_10">
	</g>
	<g id="Layer_8">
	</g>
	<g id="Layer_7">
	</g>
	<g id="Layer_6">
	</g>
	<g id="Layer_5">
	</g>
	<g id="Layer_4">
	</g>
	<g id="Layer_3">
	</g>
	<g id="Layer_2">
		<g id="Layer">
			<path id="Layer" class="shp0" d="M327.96 283.7C327.96 279.17 331.51 275.62 336.05 275.62C336.05 275.62 340.98 277.2 344.92 278.77C352.22 282.12 361.09 284.69 370.56 284.69C386.14 284.69 396.99 277.98 396.99 263.39C396.99 249.39 386.54 244.64 369.37 238.92C347.87 231.82 328.15 224.52 328.15 198.48C328.15 174.42 346.1 164.36 371.55 164.36C382.6 164.36 392.26 166.33 403.9 171.06C406.86 172.25 409.23 175.2 409.23 178.56C409.23 183.09 405.48 186.85 400.94 186.85C399.56 186.85 398.37 186.65 397.38 186.06C389.89 182.51 380.61 179.36 371.35 179.36C358.13 179.36 347.87 184.68 347.87 197.51C347.87 212.49 363.26 218.81 376.87 223.35C395.61 229.67 416.71 235.19 416.71 262.21C416.71 289.63 395.21 299.69 369.56 299.69C353.18 299.69 342.15 295.35 332.68 291.21C329.73 289.83 327.96 287.06 327.96 283.7Z" />
			<path id="Layer" fill-rule="evenodd" class="shp0" d="M514.96 241.88L514.96 245.83C514.57 252.15 510.82 255.3 504.71 255.3L451.44 255.3C453.03 273.45 460.91 285.88 480.65 285.88C487.54 285.88 494.85 284.3 500.57 282.32C501.76 281.93 502.94 281.34 504.52 281.34C508.47 281.34 511.02 284.49 511.02 288.24C511.02 291.59 509.05 293.75 506.49 294.74C499.39 297.31 489.33 299.27 479.27 299.27C447.9 299.27 432.9 279.74 432.9 248.58C432.9 216.02 449.28 197.68 476.1 197.68C497.21 197.7 514.96 209.14 514.96 241.88ZM496.62 236.57C496.62 220 489.13 211.11 475.71 211.11C459.93 211.11 452.23 223.34 451.24 243.07L496.42 243.07C496.62 241.88 496.62 239.52 496.62 236.57Z" />
			<path id="Layer" fill-rule="evenodd" class="shp0" d="M528.38 330.27C527.78 330.47 527 330.66 526.01 330.66C521.67 330.66 518.12 327.12 518.12 322.78C518.12 319.22 520.49 316.27 523.45 315.29C532.53 311.93 537.47 307.2 537.47 296.94L537.47 206.99C537.47 202.25 541.41 198.11 546.34 198.11C551.27 198.11 555.21 202.25 555.21 206.99L555.21 296.94C555.21 313.69 543.96 325.34 528.38 330.27ZM545.93 186.27C539.41 186.27 534.29 183.1 534.29 175.61C534.29 168.12 539.43 165.15 545.93 165.15C552.44 165.15 557.38 168.12 557.38 175.61C557.38 183.1 552.44 186.25 545.93 186.27Z" />
			<path id="Layer" class="shp1" d="M544.87 188.99C531.27 188.99 520.28 177.99 520.28 164.39C520.28 150.79 531.27 139.8 544.87 139.8C558.47 139.8 569.46 150.79 569.46 164.39C569.46 177.99 558.47 188.99 544.87 188.99Z" />
			<path id="Layer" fill-rule="evenodd" class="shp0" d="M661.53 291.21C661.53 295.94 657.4 299.69 652.66 299.1C647.33 298.5 642 297.12 638.26 293.77C635.69 291.4 634.7 288.64 634.31 286.07C630.95 292.78 622.47 299.29 607.28 299.29C587.36 299.29 576.7 287.84 576.7 269.9C576.7 249.97 589.13 239.52 618.92 239.12L632.93 238.92L632.93 228.66C632.93 215.24 624.45 211.1 613.2 211.1C605.31 211.1 597.22 213.67 590.7 216.23C589.92 216.62 588.93 216.62 587.94 216.62C583.99 216.62 580.64 213.47 580.64 209.32C580.64 206.16 582.8 203.39 585.58 202.4C596.23 198.86 607.87 197.67 615.17 197.67C636.68 197.67 650.67 207.14 650.67 226.87L650.67 275.4C650.67 280.53 652.84 282.5 655.61 283.29C658.97 284.3 661.53 287.46 661.53 291.21ZM632.74 251.35L620.7 251.55C606.3 251.76 595.26 254.91 595.26 268.91C595.26 279.76 602.16 285.87 609.85 285.87C614.59 285.87 632.74 283.7 632.74 264.57L632.74 251.35Z" />
			<path id="Layer" class="shp0" d="M788.77 198.09C793.7 198.09 797.25 203.03 796.07 207.76L773.97 291.01C772.79 295.74 768.25 299.49 763.12 299.49C757.8 299.49 753.45 295.74 752.28 290.81L740.24 241.68L734.72 214.06L729.59 241.29L718.94 290.02C717.75 295.35 713.01 299.49 707.29 299.49C701.96 299.49 697.23 295.54 695.85 290.62L674.34 209.14C672.96 203.62 676.91 198.09 682.82 198.09C686.96 198.09 690.32 201.24 691.31 205L702.55 252.34L707.67 279.17L712.41 252.34L722.08 208.15C723.46 202.23 728.78 197.49 735.29 197.49C741.61 197.49 746.94 201.84 748.31 207.95L758.38 252.53L763.11 279.76L768.83 252.53L781.45 203.8C782.26 200.66 785.22 198.09 788.77 198.09Z" />
			<path id="Layer" fill-rule="evenodd" class="shp0" d="M895.1 291.21C895.1 295.94 890.97 299.69 886.23 299.1C880.9 298.5 875.57 297.12 871.83 293.77C869.26 291.4 868.27 288.64 867.88 286.07C864.52 292.78 856.04 299.29 840.85 299.29C820.93 299.29 810.27 287.84 810.27 269.9C810.27 249.97 822.7 239.52 852.49 239.12L866.5 238.92L866.5 228.66C866.5 215.24 858.02 211.1 846.77 211.1C838.88 211.1 830.79 213.67 824.27 216.23C823.49 216.62 822.5 216.62 821.51 216.62C817.56 216.62 814.21 213.47 814.21 209.32C814.21 206.16 816.37 203.39 819.15 202.4C829.8 198.86 841.44 197.67 848.74 197.67C870.25 197.67 884.24 207.14 884.24 226.87L884.24 275.4C884.24 280.53 886.41 282.5 889.18 283.29C892.54 284.3 895.1 287.46 895.1 291.21ZM866.28 251.35L866.28 251.35L866.3 251.35L866.28 251.35ZM854.26 251.55C839.85 251.76 828.8 254.91 828.8 268.91C828.8 279.76 835.7 285.87 843.4 285.87C848.13 285.87 866.28 283.7 866.28 264.57L866.28 251.35L854.26 251.55Z" />
			<path id="Layer" class="shp0" d="M960 291.21C960 294.56 957.63 297.13 954.48 297.92C950.53 298.91 946.79 299.3 942.65 299.3C927.25 299.3 915.81 293.78 915.81 273.45L915.81 212.3L908.71 212.3C905.17 212.3 902 209.34 902 205.8C902 202.05 905.15 199.09 908.71 199.09L915.81 199.09L915.81 180.55C915.81 175.81 919.76 171.67 924.69 171.67C929.62 171.67 933.56 175.81 933.56 180.55L933.56 199.09L950.72 199.09C954.27 199.09 957.43 202.05 957.43 205.59C957.43 209.34 954.28 212.3 950.72 212.3L933.56 212.3L933.56 272.27C933.56 281.74 937.3 285.69 944.01 285.69C946.38 285.69 948.75 285.3 951.32 284.5C955.47 283.31 960 286.67 960 291.21Z" />
			<path id="Layer" class="shp2" d="" />
			<path id="Layer" class="shp0" d="M181.04 61.79L126.75 61.79L126.15 61.74C102.72 59.75 79.92 67.01 61.95 82.17C43.97 97.33 32.99 118.59 31 142C28.05 176.77 45.64 208.83 74.26 225.5L61.96 251.62C22.68 229.87 -1.66 186.6 2.33 139.57C4.96 108.49 19.56 80.3 43.4 60.17C67.09 40.19 97.1 30.57 127.96 33.02L180.43 33.02L181.04 61.79Z" />
			<path id="Layer" class="shp1" d="M212.37 81.98C192.48 81.98 176.41 65.91 176.41 46.02C176.41 26.13 192.48 10.06 212.37 10.06C232.25 10.06 248.33 26.13 248.33 46.02C248.33 65.91 232.25 81.98 212.37 81.98Z" />
			<path id="Layer" class="shp1" d="M96.84 287.35C76.96 287.35 60.88 271.28 60.88 251.39C60.88 231.5 76.96 215.43 96.84 215.43C116.73 215.43 132.8 231.5 132.8 251.39C132.8 271.28 116.73 287.35 96.84 287.35Z" />
			<path id="Layer" class="shp0" d="M67.68 342.42L120.47 342.42L120.89 342.45C169.36 345.28 211.05 308.13 213.87 259.68C216.68 211.37 179.76 169.75 131.51 166.72L97.49 166.72C89.54 166.72 83.1 160.28 83.1 152.33C83.1 144.38 89.54 137.94 97.49 137.94L132.78 137.97C197.07 141.7 246.33 197.05 242.59 261.34C238.99 323.34 187.4 371.36 126.07 371.36C123.94 371.36 121.8 371.29 119.65 371.18L64.84 371.18" />
			<path id="Layer" class="shp1" d="M35.96 389.94C16.07 389.94 0 373.87 0 353.98C0 334.09 16.07 318.02 35.96 318.02C55.85 318.02 71.92 334.09 71.92 353.98C71.92 373.87 55.85 389.94 35.96 389.94Z" />
		</g>
	</g>
</svg>