<svg xmlns="http://www.w3.org/2000/svg" viewBox="0 0 901 360" width="901" height="360">
	<defs>
		<linearGradient id="grd1" gradientUnits="userSpaceOnUse"  x1="220.016" y1="68.869" x2="419.035" y2="183.773">
			<stop offset="0" stop-color="#ffffff"  />
			<stop offset="0.141" stop-color="#ffffff" stop-opacity="0.86" />
			<stop offset="1" stop-color="#ffffff" stop-opacity="0" />
		</linearGradient>
		<linearGradient id="grd2" gradientUnits="userSpaceOnUse"  x1="93.475" y1="102.587" x2="292.496" y2="217.492">
			<stop offset="0" stop-color="#ffffff"  />
			<stop offset="0.141" stop-color="#ffffff" stop-opacity="0.86" />
			<stop offset="1" stop-color="#ffffff" stop-opacity="0" />
		</linearGradient>
		<linearGradient id="grd3" gradientUnits="userSpaceOnUse"  x1="185.993" y1="313.541" x2="185.993" y2="45.159">
			<stop offset="0" stop-color="#ffffff"  />
			<stop offset="0.141" stop-color="#ffffff" stop-opacity="0.86" />
			<stop offset="1" stop-color="#ffffff" stop-opacity="0" />
		</linearGradient>
	</defs>
	<style>
		tspan { white-space:pre }
		.shp0 { fill: #e5262b } 
		.shp1 { fill: #5a5a5c } 
		.shp2 { opacity: 0.2;fill: url(#grd1) } 
		.shp3 { opacity: 0.2;fill: url(#grd2) } 
		.shp4 { opacity: 0.2;fill: url(#grd3) } 
		.shp5 { fill: none } 
	</style>
	<g id="Layer">
		<path id="Layer" class="shp0" d="M354.09 179.58C345.2 179.58 336.98 178.14 329.45 175.27C321.91 172.4 315.38 168.35 309.85 163.15C304.33 157.95 299.98 151.74 296.84 144.53C293.7 137.32 292.13 129.38 292.13 120.71L292.13 120.39C292.13 112.15 293.66 104.42 296.73 97.21C299.81 89.99 304.04 83.71 309.44 78.34C314.83 72.97 321.29 68.77 328.82 65.73C336.34 62.7 344.5 61.17 353.28 61.17C363.36 61.17 372.07 62.64 379.39 65.57C386.71 68.5 393.4 72.55 399.47 77.77L380.94 100.05C376.82 96.59 372.61 93.94 368.33 92.09C364.04 90.24 359.08 89.33 353.45 89.33C349.33 89.33 345.51 90.14 341.98 91.77C338.46 93.4 335.4 95.61 332.79 98.44C330.19 101.26 328.13 104.57 326.61 108.35C325.09 112.15 324.34 116.21 324.34 120.55L324.34 120.88C324.34 125.43 325.1 129.66 326.63 133.57C328.15 137.47 330.29 140.8 333.07 143.57C335.84 146.33 339.1 148.51 342.86 150.07C346.61 151.64 350.78 152.42 355.35 152.42C362.75 152.42 368.84 150.85 373.63 147.71L373.63 133.89L351.19 133.89L351.19 110.79L403.55 110.79L403.55 162.02C397.48 167.01 390.33 171.18 382.09 174.54C373.83 177.9 364.51 179.58 354.09 179.58Z" />
		<path id="Layer" fill-rule="evenodd" class="shp0" d="M444.52 179.26C440.29 179.26 436.39 178.66 432.8 177.47C429.22 176.28 426.11 174.54 423.45 172.27C420.79 169.99 418.7 167.17 417.18 163.82C415.66 160.46 414.91 156.55 414.91 152.1L414.91 151.78C414.91 147.22 415.74 143.22 417.43 139.74C419.11 136.28 421.45 133.4 424.42 131.13C427.4 128.85 431.01 127.11 435.23 125.92C439.46 124.73 444.17 124.14 449.39 124.14C453.51 124.14 457.43 124.49 461.17 125.2C464.91 125.9 468.03 126.68 470.53 127.55L470.53 126.09C470.53 121.53 469.09 118.02 466.22 115.52C463.35 113.03 458.92 111.78 452.97 111.78C448.3 111.78 444.08 112.22 440.28 113.08C436.48 113.95 432.64 115.14 428.73 116.66L422.39 94.86C427.38 92.8 432.66 91.15 438.24 89.9C443.83 88.65 450.41 88.03 458.01 88.03C465.92 88.03 472.61 88.95 478.09 90.79C483.57 92.64 488.03 95.29 491.51 98.76C494.86 102.01 497.28 105.94 498.74 110.54C500.21 115.15 500.93 120.54 500.93 126.72L500.93 177.3L470.36 177.3L470.36 168.2C467.33 171.55 463.72 174.24 459.54 176.24C455.39 178.24 450.38 179.26 444.52 179.26ZM455.58 159.9C460.14 159.9 463.82 158.6 466.64 155.99C469.46 153.39 470.86 149.88 470.86 145.42L470.86 141.35C469.34 140.7 467.53 140.16 465.41 139.72C463.29 139.29 461.1 139.07 458.83 139.07C454.27 139.07 450.78 140.07 448.34 142.08C445.9 144.09 444.68 146.71 444.68 149.97L444.68 150.29C444.68 153.33 445.71 155.68 447.78 157.36C449.83 159.05 452.43 159.9 455.58 159.9Z" />
		<path id="Layer" class="shp0" d="M516.73 58.58L547.79 58.58L547.79 118.76L571.69 89.32L606.66 89.32L576.09 124.61L607.48 177.3L573.49 177.3L555.77 147.38L547.8 156.65L547.8 177.3L516.73 177.3L516.73 58.58Z" />
		<path id="Layer" class="shp0" d="M614.8 58.58L645.86 58.58L645.86 118.76L669.76 89.32L704.73 89.32L674.16 124.61L705.55 177.3L671.56 177.3L653.84 147.38L645.87 156.65L645.87 177.3L614.81 177.3L614.81 58.58L614.8 58.58Z" />
		<path id="Layer" fill-rule="evenodd" class="shp0" d="M756.47 179.41C749.53 179.41 743.18 178.29 737.44 176.08C731.69 173.85 726.73 170.77 722.56 166.8C718.38 162.85 715.13 158.05 712.8 152.41C710.47 146.78 709.3 140.54 709.3 133.71L709.3 133.39C709.3 126.99 710.38 121.01 712.55 115.41C714.72 109.83 717.78 104.95 721.74 100.77C725.69 96.59 730.38 93.32 735.81 90.92C741.23 88.54 747.19 87.34 753.7 87.34C761.29 87.34 767.88 88.64 773.47 91.24C779.05 93.85 783.66 97.34 787.29 101.73C790.92 106.13 793.63 111.22 795.42 117.02C797.2 122.82 798.1 128.97 798.1 135.48C798.1 136.46 798.1 137.49 798.1 138.58C798.1 139.66 798.04 140.74 797.93 141.83L739.05 141.83C740.24 146.71 742.49 150.34 745.8 152.72C749.11 155.1 753.2 156.3 758.07 156.3C761.76 156.3 765.14 155.6 768.24 154.18C771.34 152.78 774.44 150.49 777.6 147.35L794.68 161.51C790.45 166.93 785.22 171.27 778.99 174.52C772.75 177.79 765.24 179.41 756.47 179.41ZM769.14 126.07C768.6 121.18 766.98 117.32 764.26 114.44C761.55 111.57 758.09 110.13 753.86 110.13C749.74 110.13 746.38 111.57 743.78 114.44C741.17 117.3 739.44 121.18 738.57 126.07L769.14 126.07Z" />
		<path id="Layer" class="shp0" d="M811.27 89.32L842.33 89.32L842.33 101.67C843.73 99.83 845.27 98.04 846.99 96.3C848.7 94.57 850.63 93.05 852.77 91.74C854.92 90.45 857.27 89.39 859.85 88.58C862.42 87.77 865.25 87.36 868.36 87.36C877.85 87.36 885.23 90.23 890.51 95.98C895.8 101.73 898.44 109.65 898.44 119.73L898.44 177.3L867.38 177.3L867.38 129.65C867.38 124.77 866.25 121.09 864.01 118.59C861.76 116.1 858.82 114.85 855.18 114.85C851.43 114.85 848.36 116.1 845.94 118.59C843.54 121.09 842.33 124.77 842.33 129.65L842.33 177.3L811.27 177.3L811.27 89.32Z" />
	</g>
	<g id="Layer">
		<path id="Layer" class="shp1" d="M298.97 196.23L314.46 196.23L314.46 284.48L298.97 284.48L298.97 196.23Z" />
		<path id="Layer" class="shp1" d="M336.56 217.92L352.04 217.92L352.04 228.36C353.14 226.76 354.34 225.24 355.65 223.85C356.96 222.46 358.48 221.2 360.21 220.1C361.94 219.01 363.84 218.12 365.91 217.49C367.98 216.86 370.32 216.54 372.94 216.54C380.53 216.54 386.4 218.85 390.53 223.47C394.66 228.09 396.73 234.31 396.73 242.12L396.73 284.48L381.24 284.48L381.24 246.75C381.24 241.55 380.01 237.55 377.53 234.74C375.05 231.93 371.55 230.53 367.02 230.53C362.57 230.53 358.96 231.98 356.2 234.87C353.42 237.77 352.04 241.81 352.04 247L352.04 284.48L336.56 284.48L336.56 217.92L336.56 217.92Z" />
		<path id="Layer" fill-rule="evenodd" class="shp1" d="M442.95 285.87C438.97 285.87 435.11 285.11 431.39 283.6C427.66 282.09 424.36 279.86 421.48 276.92C418.6 273.98 416.28 270.36 414.49 266.08C412.72 261.79 411.83 256.87 411.83 251.33L411.83 251.08C411.83 245.53 412.7 240.61 414.42 236.33C416.15 232.04 418.46 228.42 421.33 225.48C424.2 222.54 427.52 220.31 431.27 218.8C435.03 217.29 438.89 216.53 442.86 216.53C448.35 216.53 452.91 217.71 456.54 220.06C460.17 222.42 463.21 225.15 465.66 228.25L465.66 192.45L481.15 192.45L481.15 284.48L465.66 284.48L465.79 273.39C463.34 276.84 460.27 279.78 456.59 282.21C452.91 284.64 448.36 285.87 442.95 285.87ZM446.57 272.64C449.1 272.64 451.54 272.14 453.91 271.12C456.27 270.11 458.34 268.67 460.11 266.78C461.89 264.89 463.29 262.64 464.35 260.03C465.41 257.42 465.93 254.53 465.93 251.33L465.93 251.08C465.93 247.89 465.41 244.96 464.35 242.31C463.29 239.67 461.89 237.42 460.11 235.56C458.34 233.72 456.28 232.29 453.91 231.28C451.55 230.27 449.1 229.77 446.57 229.77C443.95 229.77 441.48 230.25 439.16 231.22C436.84 232.18 434.79 233.6 433.02 235.45C431.24 237.29 429.85 239.54 428.84 242.2C427.83 244.84 427.33 247.8 427.33 251.09L427.33 251.34C427.33 254.53 427.83 257.46 428.84 260.1C429.85 262.74 431.24 264.99 433.02 266.85C434.79 268.69 436.84 270.12 439.16 271.14C441.48 272.12 443.96 272.64 446.57 272.64Z" />
		<path id="Layer" fill-rule="evenodd" class="shp1" d="M532.21 285.99C527.12 285.99 522.41 285.09 518.05 283.28C513.7 281.47 509.92 279.02 506.76 275.9C503.58 272.79 501.1 269.14 499.33 264.93C497.55 260.73 496.66 256.28 496.66 251.56L496.66 251.31C496.66 246.53 497.56 242.03 499.39 237.83C501.21 233.62 503.71 229.95 506.87 226.79C510.05 223.64 513.81 221.14 518.17 219.29C522.53 217.45 527.29 216.52 532.46 216.52C537.62 216.52 542.39 217.42 546.74 219.23C551.1 221.04 554.87 223.52 558.04 226.67C561.21 229.83 563.69 233.48 565.47 237.64C567.24 241.79 568.14 246.27 568.14 251.06L568.14 251.31C568.14 256.02 567.22 260.48 565.41 264.68C563.59 268.89 561.09 272.56 557.92 275.72C554.74 278.87 550.96 281.37 546.55 283.22C542.15 285.08 537.37 285.99 532.21 285.99ZM532.46 272.75C535.56 272.75 538.36 272.18 540.85 271.05C543.33 269.92 545.46 268.39 547.22 266.44C548.98 264.52 550.33 262.27 551.25 259.7C552.18 257.14 552.65 254.42 552.65 251.56L552.65 251.31C552.65 248.37 552.15 245.6 551.14 242.99C550.12 240.39 548.72 238.12 546.91 236.18C545.1 234.25 542.96 232.72 540.47 231.58C537.99 230.45 535.23 229.87 532.21 229.87C529.18 229.87 526.42 230.45 523.95 231.58C521.47 232.71 519.34 234.22 517.58 236.11C515.81 238 514.47 240.25 513.54 242.86C512.61 245.47 512.15 248.2 512.15 251.05L512.15 251.3C512.15 254.24 512.65 256.99 513.66 259.56C514.67 262.12 516.08 264.4 517.89 266.37C519.7 268.35 521.84 269.9 524.33 271.04C526.81 272.18 529.52 272.75 532.46 272.75Z" />
		<path id="Layer" class="shp1" d="M583.75 217.92L599.24 217.92L599.24 228.36C600.34 226.76 601.54 225.24 602.85 223.85C604.16 222.46 605.68 221.2 607.41 220.1C609.13 219.01 611.04 218.12 613.11 217.49C615.18 216.86 617.52 216.54 620.13 216.54C627.73 216.54 633.6 218.85 637.73 223.47C641.86 228.09 643.93 234.31 643.93 242.12L643.93 284.48L628.44 284.48L628.44 246.75C628.44 241.55 627.21 237.55 624.73 234.74C622.25 231.93 618.75 230.53 614.22 230.53C609.77 230.53 606.16 231.98 603.4 234.87C600.62 237.77 599.24 241.81 599.24 247L599.24 284.48L583.75 284.48L583.75 217.92Z" />
		<path id="Layer" fill-rule="evenodd" class="shp1" d="M693.19 285.99C688.37 285.99 683.86 285.15 679.67 283.47C675.48 281.79 671.84 279.43 668.75 276.41C665.66 273.39 663.23 269.75 661.46 265.5C659.68 261.27 658.79 256.58 658.79 251.45L658.79 251.2C658.79 246.41 659.59 241.91 661.21 237.71C662.81 233.5 665.07 229.83 668 226.67C670.93 223.52 674.37 221.04 678.35 219.23C682.32 217.42 686.73 216.52 691.55 216.52C696.88 216.52 701.56 217.48 705.59 219.42C709.61 221.36 712.95 223.96 715.62 227.24C718.29 230.53 720.3 234.33 721.66 238.65C723.01 242.98 723.69 247.54 723.69 252.33C723.69 253 723.67 253.7 723.63 254.41C723.59 255.12 723.53 255.86 723.44 256.61L674.18 256.61C675.03 262.08 677.21 266.25 680.72 269.16C684.23 272.06 688.48 273.5 693.48 273.5C697.29 273.5 700.59 272.84 703.38 271.49C706.18 270.15 708.93 268.17 711.63 265.56L720.65 273.5C717.43 277.29 713.6 280.31 709.16 282.59C704.72 284.86 699.37 285.99 693.19 285.99ZM706.78 239.67C705.93 237.53 704.79 235.68 703.35 234.12C701.91 232.56 700.19 231.33 698.21 230.41C696.22 229.48 693.96 229.02 691.41 229.02C686.67 229.02 682.75 230.64 679.66 233.87C676.56 237.11 674.68 241.34 674 246.54L708.43 246.54C708.18 244.1 707.62 241.81 706.78 239.67Z" />
		<path id="Layer" class="shp1" d="M762.14 285.74C757.32 285.74 752.43 284.9 747.48 283.19C742.53 281.49 737.93 278.99 733.7 275.68L740.56 265.33C744.2 268.02 747.91 270.05 751.67 271.44C755.43 272.84 759.05 273.53 762.53 273.53C765.82 273.53 768.38 272.87 770.2 271.58C772.03 270.28 772.93 268.54 772.93 266.35L772.93 266.1C772.93 264.84 772.53 263.75 771.73 262.83C770.92 261.91 769.82 261.11 768.43 260.43C767.04 259.77 765.43 259.14 763.61 258.54C761.79 257.96 759.91 257.36 757.95 256.78C755.5 256.11 753.03 255.31 750.53 254.39C748.03 253.47 745.79 252.27 743.8 250.8C741.81 249.34 740.18 247.5 738.91 245.33C737.63 243.15 737 240.46 737 237.28L737 237.03C737 233.92 737.62 231.11 738.85 228.6C740.07 226.09 741.76 223.95 743.93 222.18C746.09 220.42 748.63 219.08 751.55 218.16C754.47 217.24 757.59 216.78 760.88 216.78C765.11 216.78 769.39 217.46 773.7 218.81C778.03 220.17 781.95 222.04 785.51 224.42L779.42 235.31C776.2 233.39 772.94 231.85 769.64 230.71C766.35 229.56 763.3 229 760.5 229C757.54 229 755.23 229.64 753.59 230.89C751.93 232.15 751.11 233.74 751.11 235.66L751.11 235.91C751.11 237.09 751.53 238.11 752.38 238.99C753.23 239.87 754.35 240.67 755.75 241.39C757.16 242.1 758.75 242.77 760.57 243.4C762.39 244.03 764.28 244.64 766.23 245.22C768.68 245.97 771.13 246.85 773.6 247.86C776.05 248.87 778.28 250.1 780.26 251.58C782.25 253.04 783.88 254.83 785.16 256.92C786.43 259.02 787.06 261.58 787.06 264.59L787.06 264.84C787.06 268.36 786.43 271.42 785.16 274.02C783.88 276.61 782.13 278.78 779.88 280.49C777.64 282.21 774.99 283.52 771.94 284.4C768.87 285.3 765.61 285.74 762.14 285.74Z" />
		<path id="Layer" class="shp1" d="M802.89 193.21L819.52 193.21L819.52 207.71L802.89 207.71L802.89 193.21ZM803.54 217.92L819.02 217.92L819.02 284.48L803.54 284.48L803.54 217.92Z" />
		<path id="Layer" fill-rule="evenodd" class="shp1" d="M879.96 284.48L879.96 276.29C877.68 278.98 874.76 281.25 871.2 283.1C867.64 284.94 863.33 285.87 858.25 285.87C855.04 285.87 851.99 285.43 849.11 284.55C846.23 283.67 843.72 282.37 841.55 280.65C839.39 278.92 837.66 276.78 836.35 274.22C835.04 271.66 834.38 268.69 834.38 265.33L834.38 265.08C834.38 261.37 835.06 258.16 836.42 255.43C837.77 252.71 839.66 250.43 842.07 248.62C844.49 246.81 847.36 245.47 850.7 244.59C854.05 243.71 857.67 243.27 861.56 243.27C865.62 243.27 869.07 243.52 871.91 244.03C874.74 244.53 877.46 245.21 880.1 246.04L880.1 244.78C880.1 240.16 878.68 236.62 875.85 234.18C873.01 231.74 868.93 230.53 863.6 230.53C859.79 230.53 856.41 230.91 853.44 231.66C850.48 232.42 847.48 233.42 844.43 234.68L840.24 222.46C843.97 220.78 847.77 219.43 851.67 218.42C855.56 217.41 860.26 216.91 865.76 216.91C875.75 216.91 883.15 219.36 887.98 224.28C892.8 229.2 895.21 236.11 895.21 245.02L895.21 284.48L879.96 284.48ZM880.35 256.62C878.39 255.86 876.1 255.23 873.43 254.73C870.76 254.23 867.95 253.97 864.99 253.97C860.17 253.97 856.39 254.9 853.69 256.74C850.98 258.59 849.63 261.11 849.63 264.3L849.63 264.55C849.63 267.74 850.88 270.18 853.38 271.86C855.88 273.54 858.94 274.39 862.58 274.39C865.12 274.39 867.48 274.05 869.63 273.37C871.79 272.71 873.67 271.75 875.29 270.54C876.89 269.33 878.14 267.85 879.04 266.12C879.93 264.4 880.37 262.49 880.37 260.39L880.37 256.62L880.35 256.62Z" />
	</g>
	<g id="Layer">
		<path id="Layer" class="shp1" d="M232.68 281.46C235.43 272.71 240.9 241.8 229.44 227.71C215.95 211.1 208.69 206.17 187.41 195.02C166.14 183.86 159.13 177.89 150.32 166.47C141.5 155.05 137.87 140.27 137.87 140.27C137.87 140.27 124.12 188.53 130.86 213.43C137.61 238.34 150.59 249.4 146.43 251.09C145.26 251.56 142.33 252.16 138.74 252.77C100.51 251.86 69.8 220.6 69.8 182.16C69.8 143.15 101.43 111.51 140.45 111.51C148.82 111.51 156.86 112.97 164.32 115.65C167.7 116.79 171.31 117.45 175.07 117.45C193.49 117.45 208.43 102.52 208.43 84.09C208.43 73 205.5 58.79 183.9 52.05C163.14 45.86 150.84 45.16 140.46 45.16C64.8 45.16 3.46 106.49 3.46 182.15C3.46 257.81 64.8 319.15 140.46 319.15C174.89 319.15 206.29 306.38 230.35 285.42C230.89 284.93 231.96 283.72 232.68 281.46Z" />
		<g id="Layer">
			<path id="Layer" class="shp2" d="M434.41 126.32C434.41 189.76 382.97 241.21 319.52 241.21C256.07 241.21 204.64 189.77 204.64 126.32C204.64 62.86 256.07 11.42 319.52 11.42C382.97 11.44 434.41 62.88 434.41 126.32Z" />
		</g>
		<g id="Layer">
			<path id="Layer" class="shp3" d="M307.86 160.04C307.86 223.49 256.44 274.93 192.97 274.93C129.52 274.93 78.09 223.49 78.09 160.04C78.09 96.59 129.52 45.15 192.97 45.15C256.44 45.15 307.86 96.59 307.86 160.04Z" />
			<path id="Layer" class="shp4" d="M52.67 45.16C31.34 73.25 18.69 108.26 18.69 146.23C18.69 238.64 93.59 313.54 186 313.54C278.4 313.54 353.3 238.64 353.3 146.23C353.3 108.26 340.64 73.25 319.33 45.16L52.67 45.16Z" />
		</g>
		<path id="Layer" class="shp0" d="M224.77 190.54C205.81 190.54 190.49 175.22 190.49 156.26C190.49 137.3 205.81 121.97 224.77 121.97C243.73 121.97 259.06 137.3 259.06 156.26C259.06 175.22 243.73 190.54 224.77 190.54Z" />
	</g>
	<path id="_x3C_Slice_x3E__1_" class="shp5" d="M0 44.31L901 44.31L901 323.88L0 323.88L0 44.31Z" />
</svg>